# xmcd
#
# Track frame offsets: 
#        150
#        22645
#        40560
#        65027
#        89202
#        134953
#        159904
#        176809
#        200369
#        258450
#
# Disc length: 3958 seconds
#
# Revision: 0
# Processed by: cddbd v1.5.2PL0 Copyright (c) Steve Scherf et al.
# Submitted via: ExactAudioCopy v0.95b4
#
DISCID=8b0f740a
DTITLE=Imperial Crowns - unannounced #1 Live
DYEAR=2006
DGENRE=Blues
TTITLE0=Preachin
TTITLE1=Stone Righteous
TTITLE2=Two Headed
TTITLE3=Golden Girl
TTITLE4=Altar Of Love
TTITLE5=Love Generator
TTITLE6=Simply
TTITLE7=Diamond Cane
TTITLE8=Soul Deep Freak
TTITLE9=Ramblin Woman
EXTD=
EXTT0=
EXTT1=
EXTT2=
EXTT3=
EXTT4=
EXTT5=
EXTT6=
EXTT7=
EXTT8=
EXTT9=
PLAYORDER=
